# xmcd
#
# Track frame offsets:
#	180
#	39918
#	75710
#	110608
#
# Disc length: 1692 seconds
#
# Revision: 1
# Processed by: cddbd v1.5.2PL0 Copyright (c) Steve Scherf et al.
# Submitted via: audiograbber 1.83.01
#
DISCID=26069a04
DTITLE=LeAnn Rimes - Can't Fight The Moonlight (Remixes Promo)
DYEAR=2000
DGENRE=Electronic
TTITLE0=Can't Fight The Moonlight (Thunderpuss Club Mix)
TTITLE1=Can't Fight The Moonlight (Almighty Mix)
TTITLE2=Can't Fight The Moonlight (Sharp Boys Mix)
TTITLE3=Can't Fight The Moonlight
EXTD=
EXTT0=
EXTT1=
EXTT2=
EXTT3=
PLAYORDER=
